<?xml version="1.0" encoding="UTF-8" standalone="no"?>
<!-- Created with Inkscape (http://www.inkscape.org/) -->

<svg
   xmlns:dc="http://purl.org/dc/elements/1.1/"
   xmlns:cc="http://creativecommons.org/ns#"
   xmlns:rdf="http://www.w3.org/1999/02/22-rdf-syntax-ns#"
   xmlns:svg="http://www.w3.org/2000/svg"
   xmlns="http://www.w3.org/2000/svg"
   xmlns:sodipodi="http://sodipodi.sourceforge.net/DTD/sodipodi-0.dtd"
   xmlns:inkscape="http://www.inkscape.org/namespaces/inkscape"
   width="512"
   height="512"
   viewBox="0 0 512.00001 512.00001"
   id="svg2"
   version="1.1"
   inkscape:version="0.91 r13725"
   sodipodi:docname="logo.svg">
  <defs
     id="defs4" />
  <sodipodi:namedview
     id="base"
     pagecolor="#ffffff"
     bordercolor="#666666"
     borderopacity="1.0"
     inkscape:pageopacity="0.0"
     inkscape:pageshadow="2"
     inkscape:zoom="0.98994949"
     inkscape:cx="259.64969"
     inkscape:cy="243.96263"
     inkscape:document-units="px"
     inkscape:current-layer="layer1"
     showgrid="false"
     inkscape:window-width="1920"
     inkscape:window-height="1148"
     inkscape:window-x="1912"
     inkscape:window-y="-8"
     inkscape:window-maximized="1"
     units="px" />
  <metadata
     id="metadata7">
    <rdf:RDF>
      <cc:Work
         rdf:about="">
        <dc:format>image/svg+xml</dc:format>
        <dc:type
           rdf:resource="http://purl.org/dc/dcmitype/StillImage" />
        <dc:title></dc:title>
      </cc:Work>
    </rdf:RDF>
  </metadata>
  <g
     inkscape:label="Layer 1"
     inkscape:groupmode="layer"
     id="layer1"
     transform="translate(0,-540.36216)">
    <g
       id="g4787"
       transform="matrix(0.81910516,0,0,0.81910516,-48.916137,361.59373)">
      <path
         sodipodi:nodetypes="ssssssssssscssssssssssssscsscsssssccccccccccccsssscssscccccccccccccccccccccccccc"
         inkscape:connector-curvature="0"
         id="path4165"
         d="m 287.85427,378.93053 c -8.97754,-1.41388 -15.48397,-3.60107 -24.58792,-8.26546 -6.78153,-3.47449 -10.23171,-6.08007 -17.07742,-12.89688 -7.25658,-7.22592 -9.25704,-9.92541 -12.97824,-17.51332 -5.98999,-12.21421 -7.24324,-17.78631 -7.24324,-32.2043 0,-13.86522 1.5234,-20.17079 7.84671,-32.4786 2.94701,-5.73614 5.93549,-9.61295 12.41739,-16.10856 7.45609,-7.47184 9.791,-9.16564 18.45121,-13.38498 13.27055,-6.46553 20.33056,-8.12212 34.46607,-8.08725 19.77368,0.0487 35.98291,5.67938 51.36525,17.84278 7.11754,5.62811 19.51706,19.33171 23.32516,25.77833 0.95205,1.61167 1.95806,2.92505 2.23561,2.91862 0.27752,-0.006 1.40986,-1.41019 2.5163,-3.11945 4.55367,-7.03473 16.24384,-20.01083 22.72456,-25.22432 31.27966,-25.1632 75.5087,-24.44695 103.27368,1.6724 20.62668,19.4041 27.65122,47.52519 18.46795,73.93188 -3.29959,9.48799 -7.53023,16.18991 -15.61093,24.7298 -15.66524,16.55559 -37.69388,24.74023 -61.99941,23.03553 -11.40007,-0.79955 -18.061,-2.59267 -28.26368,-7.60859 -13.52119,-6.64736 -25.97215,-18.47013 -37.10649,-35.23432 -1.81095,-2.7266 -3.59504,-4.95744 -3.96466,-4.95744 -0.36963,0 -2.60138,2.86823 -4.95947,6.37385 -6.56124,9.75424 -14.23872,18.55312 -21.26043,24.3658 -7.19674,5.95759 -20.5852,12.91682 -29.0251,15.08705 -6.96909,1.79204 -25.41057,2.54473 -33.0129,1.34743 z m 24.14946,-24.51038 c 7.18894,-1.333 17.37488,-6.61138 23.74511,-12.30475 6.23552,-5.57299 11.91068,-12.69212 20.21632,-25.36007 l 5.82543,-8.88508 -2.42181,-3.87354 c -1.332,-2.13047 -5.33513,-7.76535 -8.89586,-12.52199 -13.36626,-17.85544 -26.31878,-26.28597 -44.28997,-28.82742 -33.80669,-4.7809 -63.24831,25.27951 -55.16273,56.32213 4.42422,16.98573 19.35372,31.21558 36.71319,34.99267 7.02114,1.52768 17.44125,1.72434 24.27033,0.45805 z m -36.13834,-47.68579 0.32346,-5.1948 24.46379,0 24.46377,0 0,5.19352 0,5.19351 -24.78724,7e-4 -24.78723,6.9e-4 0.32345,-5.19481 z m 193.72522,45.85557 c 19.1005,-6.36459 32.99591,-24.53936 33.0385,-43.21361 0.0627,-27.43701 -26.04457,-50.10429 -54.23221,-47.08657 -20.35995,2.17972 -35.85936,12.93469 -51.20537,35.53115 l -6.7719,9.97143 8.1447,12.2181 c 13.60722,20.41253 26.69898,31.44303 40.80944,34.38417 7.10358,1.48062 23.2519,0.51618 30.21684,-1.80467 z m -26.43974,-32.63699 0,-7.08207 -6.60992,0 -6.60993,0 0,-6.60993 0,-6.60992 6.60993,0 6.60992,0 0,-6.60993 0,-6.60994 6.846,-10e-4 6.84601,-0.001 -0.30449,6.84819 -0.30456,6.84821 7.15056,-0.31067 7.15049,-0.31068 0,6.92062 0,6.9206 -6.84766,0 -6.84758,0 0,6.84763 0,6.84763 -6.846,-0.001 -6.84649,-0.002 0,-7.08207 z"
         style="fill:#00979c;fill-opacity:1" />
      <path
         id="path4204"
         d="m 289.02914,590.35975 c 20.49672,0 37.11293,16.61627 37.11293,37.11293 l 0,159.20434 c 0,20.49665 -16.61621,37.11028 -37.11293,37.11028 -20.49403,0 -37.1103,-16.61363 -37.1103,-37.11028 l 0,-159.20434 c 0,-20.49409 16.61627,-37.1103 37.1103,-37.1103 z"
         style="fill:#a4c639"
         inkscape:connector-curvature="0" />
      <path
         id="path4206"
         d="m 204.30348,398.95234 c -0.12246,1.40727 -0.22929,2.83019 -0.22929,4.26873 l 0,241.20928 c 0,25.94075 20.5331,46.83872 46.02299,46.83872 l 245.29298,0 c 25.49252,0 46.02569,-20.9006 46.02569,-46.83872 l 0,-241.20928 c 0,-1.43854 -0.0521,-2.86667 -0.17201,-4.26873 l -336.94036,0 z"
         style="fill:#a4c639"
         inkscape:connector-curvature="0" />
      <path
         sodipodi:nodetypes="csssssccssssscssssssss"
         id="path4208"
         d="m 456.46347,590.35975 c 20.49666,0 37.11287,16.61627 37.11287,37.11293 l 0,159.20434 c 0,20.49665 -16.61621,37.11028 -37.11287,37.11028 -20.49409,0 -37.11038,-16.61363 -37.11038,-37.11028 l 0,-159.20434 c 0,-20.49409 16.61629,-37.1103 37.11038,-37.1103 z M 144.44485,420.41847 c 20.49406,0 37.11033,16.61625 37.11033,37.11293 l 0,159.20429 c 0,20.49672 -16.61627,37.11293 -37.11033,37.11293 -20.49667,0 -37.11292,-16.61621 -37.11292,-37.1103 l 0,-159.20431 c -0.003,-20.49668 16.61365,-37.11554 37.11292,-37.11554 z m 456.60551,0 c 20.49409,0 37.1103,16.61625 37.1103,37.11293 l 0,159.20429 c 0,20.49672 -16.61621,37.11293 -37.1103,37.11293 -20.49672,0 -37.11293,-16.61621 -37.11293,-37.1103 l 0,-159.20431 c 0,-20.49668 16.61621,-37.11554 37.11293,-37.11554 z"
         style="fill:#a4c639"
         inkscape:connector-curvature="0" />
      <path
         inkscape:connector-curvature="0"
         id="path4178"
         d="m 348.75833,652.87309 c -23.40564,-4.19201 -39.60731,-16.48067 -50.08407,-37.98785 -7.65089,-15.70609 -11.03249,-33.96555 -11.68425,-63.09061 -0.48719,-21.77116 1.54245,-56.05633 4.06442,-68.65743 2.71162,-13.54856 9.46393,-26.46598 18.34965,-35.10356 15.63329,-15.1967 39.94355,-22.66997 67.75529,-20.8288 30.33432,2.00816 47.28889,11.01881 60.08081,31.93049 13.44227,21.97469 20.46594,75.4332 15.15603,115.35507 -3.53173,26.55321 -12.24078,47.73647 -24.82774,60.38929 -9.86605,9.91769 -22.02341,15.44027 -39.66999,18.02044 -6.67649,0.97618 -33.64272,0.95755 -39.14015,-0.0271 z m 53.34947,-92.4955 -19.94451,-19.94854 19.82714,-19.8318 19.82713,-19.83179 -29.33915,-28.89496 -29.33913,-28.89495 -0.23195,38.98736 -0.23195,38.98735 -16.46851,-16.4989 -16.4685,-16.49893 -5.8928,6.17457 -5.89279,6.17456 20.12033,20.17972 20.12035,20.17972 -20.36995,20.60715 -20.36996,20.60714 6.14241,5.91579 6.14241,5.91578 16.58449,-16.54663 16.58447,-16.54663 0,39.42876 0,39.42876 29.57249,-29.57249 29.57249,-29.57248 -19.94451,-19.94856 z m -23.89171,19.02011 0,-20.17071 8.1497,8.11331 c 4.48235,4.46232 8.95822,9.06689 9.94639,10.2324 l 1.79667,2.11909 -9.94638,9.9383 -9.94638,9.93831 0,-20.1707 z m 0,-78.40029 0,-20.17705 10.08853,10.08853 10.08852,10.08852 -10.08852,10.08853 -10.08853,10.08852 0,-20.17705 z"
         style="fill:#0060ae;fill-opacity:1" />
    </g>
  </g>
</svg>
