<?xml version="1.0" encoding="UTF-8" standalone="no"?>
<!-- Created with Inkscape (http://www.inkscape.org/) -->

<svg
   xmlns:dc="http://purl.org/dc/elements/1.1/"
   xmlns:cc="http://creativecommons.org/ns#"
   xmlns:rdf="http://www.w3.org/1999/02/22-rdf-syntax-ns#"
   xmlns:svg="http://www.w3.org/2000/svg"
   xmlns="http://www.w3.org/2000/svg"
   xmlns:sodipodi="http://sodipodi.sourceforge.net/DTD/sodipodi-0.dtd"
   xmlns:inkscape="http://www.inkscape.org/namespaces/inkscape"
   width="512"
   height="512"
   viewBox="0 0 512.00001 512.00001"
   id="svg2"
   version="1.1"
   inkscape:version="0.91 r13725"
   sodipodi:docname="logo_negative.svg"
   inkscape:export-filename="C:\Users\SRE\AndroidStudioProjects\Arduator\art\logo_negative.png"
   inkscape:export-xdpi="90"
   inkscape:export-ydpi="90">
  <defs
     id="defs4" />
  <sodipodi:namedview
     id="base"
     pagecolor="#ffffff"
     bordercolor="#666666"
     borderopacity="1.0"
     inkscape:pageopacity="0.0"
     inkscape:pageshadow="2"
     inkscape:zoom="0.98994949"
     inkscape:cx="259.64969"
     inkscape:cy="243.96263"
     inkscape:document-units="px"
     inkscape:current-layer="layer1"
     showgrid="false"
     inkscape:window-width="1920"
     inkscape:window-height="1148"
     inkscape:window-x="1912"
     inkscape:window-y="-8"
     inkscape:window-maximized="1"
     units="px"
     showguides="false" />
  <metadata
     id="metadata7">
    <rdf:RDF>
      <cc:Work
         rdf:about="">
        <dc:format>image/svg+xml</dc:format>
        <dc:type
           rdf:resource="http://purl.org/dc/dcmitype/StillImage" />
        <dc:title></dc:title>
      </cc:Work>
    </rdf:RDF>
  </metadata>
  <g
     inkscape:label="Layer 1"
     inkscape:groupmode="layer"
     id="layer1"
     transform="translate(0,-540.36216)">
    <circle
       style="opacity:1;fill:#ffffff;fill-opacity:1;stroke:none;stroke-width:2;stroke-linecap:butt;stroke-linejoin:miter;stroke-miterlimit:4;stroke-dasharray:none;stroke-dashoffset:0;stroke-opacity:1"
       id="path5375"
       cx="256"
       cy="796.36218"
       r="249" />
    <path
       style="opacity:1;fill:#00979c;fill-opacity:1;stroke:none;stroke-width:2;stroke-linecap:butt;stroke-linejoin:miter;stroke-miterlimit:4;stroke-dasharray:none;stroke-dashoffset:0;stroke-opacity:1"
       d="M 255.99999,546.36209 A 250.00081,249.99952 0 0 0 6.0000001,796.36208 250.00081,249.99952 0 0 0 255.99999,1046.3622 250.00081,249.99952 0 0 0 506,796.36208 250.00081,249.99952 0 0 0 255.99999,546.36209 Z m 63.26175,33.84037 c 13.90512,0.22319 27.47747,5.23763 37.94712,14.99953 15.55587,14.50426 20.85509,35.52418 13.92941,55.26277 -2.48843,7.09213 -5.67947,12.10238 -11.77364,18.4858 -11.81412,12.37506 -28.42761,18.49174 -46.75793,17.21749 -8.59749,-0.59764 -13.62151,-1.93779 -21.31599,-5.68711 -10.19718,-4.9688 -19.5869,-13.80643 -27.98398,-26.3374 -1.36575,-2.03809 -2.70997,-3.70444 -2.98872,-3.70444 -0.27877,0 -1.96346,2.14274 -3.74185,4.76314 -4.94824,7.29115 -10.73788,13.8693 -16.03338,18.21419 -5.42753,4.4532 -15.52494,9.65362 -21.89,11.27583 -5.25583,1.33954 -19.1626,1.90235 -24.89599,1.00739 -6.77053,-1.05684 -11.67721,-2.69034 -18.54306,-6.1769 -5.11438,-2.59712 -7.71788,-4.54633 -12.88065,-9.6418 -5.47265,-5.40125 -6.9798,-7.41772 -9.78619,-13.08955 -4.51742,-9.12994 -5.46387,-13.29519 -5.46387,-24.07241 0,-10.36403 1.15038,-15.07782 5.91919,-24.27771 2.22252,-4.28768 4.47483,-7.18617 9.36323,-12.04155 5.62311,-5.58508 7.38527,-6.8515 13.91647,-10.00539 10.00814,-4.83289 15.33174,-6.07038 25.99221,-6.0443 14.91257,0.0363 27.13613,4.24571 38.73692,13.33767 5.36778,4.20691 14.71949,14.44985 17.59141,19.26861 0.718,1.20469 1.47819,2.1864 1.6875,2.18159 0.20929,-0.004 1.06238,-1.05367 1.89681,-2.33131 3.43422,-5.25835 12.25074,-14.9588 17.13825,-18.85581 11.79498,-9.40456 26.0316,-13.97151 39.93673,-13.74833 z m -0.46611,18.10937 c -1.31193,-0.006 -2.63549,0.0601 -3.96411,0.20106 -15.35471,1.6293 -27.0427,9.66933 -38.61608,26.55983 l -5.10781,7.45378 6.14147,9.13275 c 10.26204,15.25806 20.13691,23.50158 30.77849,25.70005 5.35725,1.10673 17.535,0.38734 22.78768,-1.34746 14.40489,-4.75743 24.88328,-18.34387 24.91542,-32.30258 0.0443,-19.22693 -17.25603,-35.3195 -36.93506,-35.39743 z m -115.95181,0.0984 c -23.42489,-0.39104 -42.58274,20.71686 -36.86601,42.47051 3.33659,12.69656 14.59648,23.33227 27.68834,26.15558 5.29508,1.14193 13.15329,1.28875 18.30353,0.34222 5.42163,-0.9964 13.10227,-4.9412 17.90646,-9.1969 4.7026,-4.16573 8.9841,-9.48726 15.2479,-18.95636 l 4.39138,-6.64102 -1.8256,-2.89596 c -1.00454,-1.5925 -4.02362,-5.80396 -6.70899,-9.35948 -10.08033,-13.34665 -19.84934,-19.64888 -33.40253,-21.54858 -1.59348,-0.22336 -3.17284,-0.34395 -4.73448,-0.37001 z m 118.3579,18.14573 -0.2309,5.12032 -0.22875,5.1182 5.39266,-0.231 5.39267,-0.23313 0,5.17381 0,5.17164 -5.16393,0 -5.16392,0 0,5.1182 0,5.12032 -5.16391,-0.002 -5.16391,0 0,-5.29356 0.004,-0.002 0,-5.29571 -4.98481,0 -4.98481,0 0,-4.94066 0,-4.94067 4.98481,0 4.98481,0 0,-4.94068 0,-4.94067 5.16176,0 5.16392,-0.002 z m -136.24279,11.29509 18.45026,0 18.44811,0 0,3.88195 0,3.88197 -18.69196,0.002 -18.69411,0 0.24385,-3.88195 0.24385,-3.8841 z m -54.21356,72.81605 254.10867,0 c 0.0903,1.04802 0.12948,2.11369 0.12948,3.18898 l 0,180.30021 c 0,19.38834 -15.48689,35.01244 -34.71239,35.01244 l -1.36597,0 0,71.31675 c 0,15.32087 -12.53263,27.73827 -27.99045,27.73827 -15.45587,0 -27.98613,-12.4174 -27.98613,-27.73827 l 0,-71.31675 -70.29659,0 0,71.31675 c 0,15.32087 -12.53259,27.73827 -27.99045,27.73827 -15.45582,0 -27.98614,-12.4174 -27.98614,-27.73827 l 0,-71.31675 -1.3746,0 c -19.22351,0 -34.70807,-15.62214 -34.70807,-35.01244 l 0,-180.30021 c 0,-1.07529 0.0803,-2.13706 0.17264,-3.18898 z m -45.143815,16.04542 c 15.455845,0 27.988285,12.41951 27.988285,27.74047 l 0,119.00381 c 0,15.32099 -12.53244,27.74047 -27.988285,27.74047 -15.457809,-6e-5 -27.98829,-12.41936 -27.98829,-27.73837 l 0,-119.00383 c -0.0022,-15.32096 12.52852,-27.7426 27.98829,-27.7426 z m 344.355295,0 c 15.45588,0 27.9883,12.41951 27.9883,27.74047 l 0,119.00381 c 0,15.32099 -12.53242,27.74047 -27.9883,27.74047 -15.45784,0 -27.98829,-12.4193 -27.98829,-27.73831 l 0,-119.00384 c 0,-15.32095 12.53045,-27.7426 27.98829,-27.7426 z"
       id="path4794"
       inkscape:connector-curvature="0" />
    <path
       style="fill:#0060ae;fill-opacity:1;stroke:none;stroke-opacity:1;stroke-width:2;stroke-miterlimit:4;stroke-dasharray:none"
       d="m 242.01149,888.96855 c -17.41447,-3.11899 -29.46898,-12.26211 -37.26399,-28.26407 -5.69248,-11.68579 -8.20849,-25.27135 -8.69342,-46.94124 -0.36249,-16.19838 1.14763,-41.70753 3.02405,-51.08311 2.01751,-10.08052 7.04143,-19.69146 13.65267,-26.11807 11.63161,-11.30679 29.71914,-16.86711 50.41189,-15.49723 22.56961,1.49412 35.1843,8.19831 44.70186,23.75721 10.00145,16.34981 15.22726,56.12449 11.27652,85.82751 -2.62771,19.75636 -9.1075,35.51731 -18.47255,44.93138 -7.34062,7.37905 -16.38606,11.48801 -29.51561,13.40773 -4.96751,0.7263 -25.03117,0.71245 -29.12142,-0.0201 z m 39.69355,-68.81934 -14.83929,-14.84229 14.75197,-14.75544 14.75195,-14.75542 -21.82917,-21.49868 -21.82917,-21.49868 -0.17257,29.00772 -0.17257,29.00771 -12.25306,-12.27565 -12.25303,-12.27568 -4.38442,4.59406 -4.3844,4.59405 14.97011,15.01429 14.97012,15.0143 -15.15583,15.33232 -15.15585,15.33231 4.57013,4.40151 4.57014,4.40151 12.33933,-12.31118 12.33933,-12.31115 0,29.33613 0,29.33614 22.00278,-22.0028 22.0028,-22.00277 -14.8393,-14.84231 z m -17.77612,14.15151 0,-15.00758 6.06361,6.03653 c 3.335,3.3201 6.66518,6.74604 7.4004,7.6132 l 1.33678,1.57667 -7.4004,7.39439 -7.40039,7.39438 0,-15.00759 z m 0,-58.33208 0,-15.01231 7.50616,7.50617 7.50615,7.50614 -7.50615,7.50616 -7.50616,7.50615 0,-15.01231 z"
       id="path4178"
       inkscape:connector-curvature="0" />
  </g>
</svg>
